<?xml version="1.0" encoding="UTF-8"?>
<!DOCTYPE svg PUBLIC "-//W3C//DTD SVG 1.1//EN" "http://www.w3.org/Graphics/SVG/1.1/DTD/svg11.dtd">
<!-- Creator: CorelDRAW 2019 (64 Bit) -->
<svg xmlns="http://www.w3.org/2000/svg" xml:space="preserve" width="500px" height="400px" version="1.1" style="shape-rendering:geometricPrecision; text-rendering:geometricPrecision; image-rendering:optimizeQuality; fill-rule:evenodd; clip-rule:evenodd"
viewBox="0 0 500 400"
 xmlns:xlink="http://www.w3.org/1999/xlink">
 <defs>
  <style type="text/css">
   <![CDATA[
    .str0 {stroke:#C98C36;stroke-width:3;stroke-linejoin:round;stroke-miterlimit:22.9256}
    .str1 {stroke:#FFB64F;stroke-width:3;stroke-linejoin:round;stroke-miterlimit:22.9256}
    .fil0 {fill:#005247}
    .fil1 {fill:#C98C36;fill-rule:nonzero}
    .fil2 {fill:#FFB64F;fill-rule:nonzero}
   ]]>
  </style>
 </defs>
 <g id="Camada_x0020_1">
  <metadata id="CorelCorpID_0Corel-Layer"/>
  <g id="_2407520523888">
   <g>
    <path class="fil0" d="M228.335 362.139c14.51,-18.657 12.809,-58.067 2.54,-78.539 -27.624,-55.068 -97.136,-46.475 -122.365,-72.944 -7.979,-8.372 -15.18,-15.254 -24.16,-23.288 -3.539,-3.166 -8.406,-7.608 -13.16,-10.678 -8.98,-5.799 -11.562,-4.365 -14.017,-4.022 -21.655,3.028 19.412,48.87 28.673,61.126 -16.183,-9.584 -43.117,-50.333 -41.924,-58.486 6.784,-14.53 8.634,2.336 6.206,-16.597 -5.316,-41.451 -0.112,-60.213 -22.114,-60.056 -3.621,35.009 -6.451,75.116 5.085,105.577 45.646,120.518 111.768,79.407 168.352,124.613 12.919,10.321 14.979,20.205 26.884,33.294z"/>
    <path class="fil0" d="M271.665 362.139c-14.51,-18.657 -12.809,-58.067 -2.54,-78.539 27.624,-55.068 97.136,-46.475 122.365,-72.944 7.979,-8.372 15.18,-15.254 24.16,-23.288 3.539,-3.166 8.406,-7.608 13.16,-10.678 8.98,-5.799 11.562,-4.365 14.017,-4.022 21.655,3.028 -19.412,48.87 -28.673,61.126 16.183,-9.584 43.117,-50.333 41.924,-58.486 -6.784,-14.53 -8.634,2.336 -6.206,-16.597 5.316,-41.451 0.112,-60.213 22.114,-60.056 3.621,35.009 6.451,75.116 -5.085,105.577 -45.646,120.518 -111.768,79.407 -168.352,124.613 -12.919,10.321 -14.979,20.205 -26.884,33.294z"/>
   </g>
   <path class="fil1 str0" d="M221.908 81.013c9.708,-7.985 5.95,-20.823 -5.166,-26.303 -11.273,-5.637 -34.602,-4.697 -50.259,0.783 -22.859,8.141 -37.107,31.314 -13.778,46.814 11.742,7.828 32.723,13.465 42.43,21.293 18.945,15.344 7.828,42.274 -18.475,56.052 -31.314,16.283 -87.523,12.213 -87.21,-26.616 0.157,-10.021 3.132,-20.511 8.769,-29.279 2.818,-4.541 6.575,-8.455 10.803,-11.743 5.167,-3.914 0.626,-3.288 -1.566,-2.348 -15.344,7.202 -27.556,28.495 -26.773,43.37 2.661,44.152 69.36,48.536 104.745,27.399 26.46,-15.813 47.44,-45.248 15.5,-64.976 -11.586,-7.202 -27.4,-12.682 -36.95,-18.476 -21.137,-12.995 -10.177,-30.531 8.454,-37.263 50.416,-18.006 59.34,20.824 39.769,23.172 -5.167,0.627 -5.01,4.228 -0.783,3.132 4.541,-1.253 7.985,-2.975 10.49,-5.011zm66.073 68.578c1.565,-3.132 -0.783,-4.071 -2.192,-1.253 -3.288,6.733 -13.622,26.617 -20.198,26.304 -2.035,0 -2.818,-2.975 -1.565,-9.394 2.035,-9.551 11.272,-25.991 14.56,-29.279 -2.191,0.47 -4.54,-0.469 -6.576,-0.626 -5.01,-0.313 -7.202,3.444 -10.646,10.021 -4.071,7.672 -8.455,15.343 -13.935,21.919 -7.359,8.768 -15.97,10.021 -14.404,-0.939 0.939,-5.95 5.166,-13.622 6.419,-15.814 5.636,-9.237 13.778,-18.475 20.824,-22.389 5.793,-3.132 11.586,-1.879 13.308,3.914 2.662,0.47 3.914,-2.192 1.722,-4.54 -8.924,-9.708 -26.93,-3.915 -36.324,7.202 -23.642,28.339 -11.742,55.738 6.263,38.516 4.541,-4.384 8.768,-10.647 11.273,-14.718 -4.697,16.44 2.662,20.511 7.828,20.198 9.395,-0.783 18.946,-19.571 23.643,-29.122zm52.45 -0.157c1.566,-3.131 -0.939,-4.227 -2.192,-1.409 -3.287,6.576 -13.308,27.087 -21.45,27.087 -2.035,0 -3.757,-1.409 -2.505,-7.829 2.036,-10.96 18.789,-40.395 18.789,-40.395 -5.324,-1.879 -21.45,7.985 -28.966,14.718 -4.853,4.227 -9.864,10.177 -12.995,14.091 5.636,-11.273 14.248,-26.93 18.945,-29.435 -2.192,0.47 -4.54,-0.47 -6.576,-0.626 -5.01,-0.313 -7.046,2.348 -11.116,9.864 -7.672,14.247 -14.092,29.122 -21.607,43.996 1.566,-1.096 2.975,-0.94 5.323,-1.096 3.288,0.156 4.698,0 5.95,-2.192 8.768,-17.38 16.44,-26.147 21.763,-31.001 12.056,-11.273 14.874,-7.046 11.117,-0.94 -4.384,7.046 -7.359,12.369 -8.612,16.44 -4.697,14.561 2.818,18.319 8.298,18.319 12.056,0 21.137,-19.884 25.834,-29.435l0 -0.157zm36.325 -30.531l-7.516 0c2.349,-4.384 4.541,-8.768 6.733,-13.465 11.586,-25.051 -5.324,-27.713 -16.127,-8.768 -3.914,6.733 -7.828,14.405 -11.429,22.233l-9.395 0c-1.722,0 -2.035,3.445 -0.313,3.445l8.142 0c-5.01,12.212 -10.803,29.278 -12.212,39.925 -2.349,17.223 13.151,19.884 21.606,11.743 5.793,-5.793 8.455,-10.021 15.344,-24.425 1.566,-3.132 -0.783,-3.758 -2.035,-0.94 -4.228,8.455 -9.395,18.319 -16.597,23.643 -5.167,3.757 -12.369,2.348 -10.02,-8.142 0,0 2.192,-11.899 3.601,-15.97 9.237,-8.455 15.5,-16.753 20.823,-25.834l9.082 0c1.565,0 1.878,-3.445 0.313,-3.445zm-3.132 -15.97c-2.192,5.167 -4.853,10.647 -7.828,15.97l-7.829 0c3.915,-8.924 7.359,-17.535 11.117,-22.859 9.707,-13.622 7.515,0.313 4.54,6.889zm-9.864 19.415c-4.54,7.515 -9.863,14.717 -15.813,20.824 2.192,-5.48 5.167,-13.152 8.455,-20.824l7.358 0zm46.658 26.773c1.566,-3.288 -1.566,-2.975 -2.818,-0.156 -3.601,8.298 -12.056,26.773 -25.834,26.773 -10.334,0 -7.672,-15.813 -5.323,-21.45 4.227,0 14.404,-3.288 19.258,-6.889 10.02,-7.672 14.56,-18.319 8.611,-22.859 -6.889,-5.167 -18.789,0.783 -26.774,10.177 -6.889,8.141 -12.212,19.884 -12.055,29.278 0.156,9.864 7.202,15.031 15.03,15.031 17.379,0 24.112,-17.379 29.905,-29.905zm-16.283 -4.384c-5.637,4.697 -13.778,6.889 -16.597,6.889 1.41,-2.818 5.324,-9.707 9.394,-14.717 19.259,-23.329 20.041,-2.975 7.203,7.828zm28.182 -41.96c0.783,-1.566 0.157,-3.445 -1.409,-4.228 -3.131,-1.566 -6.576,0 -9.081,1.879 -2.505,2.035 -18.632,12.995 -19.258,14.248 -0.47,0.626 -0.313,1.566 0.47,2.035 1.096,0.47 28.026,-11.273 29.278,-13.934z"/>
   <path class="fil2 str1" d="M218.608 77.16c9.708,-7.985 5.95,-20.824 -5.166,-26.304 -11.274,-5.637 -34.602,-4.697 -50.259,0.783 -22.859,8.141 -37.107,31.314 -13.778,46.814 11.742,7.829 32.722,13.465 42.43,21.294 18.945,15.343 7.828,42.273 -18.475,56.052 -31.314,16.283 -87.523,12.212 -87.21,-26.617 0.157,-10.021 3.132,-20.511 8.768,-29.279 2.819,-4.54 6.576,-8.455 10.804,-11.743 5.167,-3.914 0.626,-3.287 -1.566,-2.348 -15.344,7.202 -27.556,28.496 -26.774,43.37 2.662,44.152 69.361,48.536 104.745,27.399 26.461,-15.813 47.441,-45.248 15.501,-64.976 -11.586,-7.202 -27.4,-12.682 -36.951,-18.475 -21.136,-12.995 -10.177,-30.531 8.455,-37.264 50.416,-18.005 59.34,20.824 39.769,23.172 -5.167,0.627 -5.01,4.228 -0.783,3.132 4.541,-1.253 7.985,-2.975 10.49,-5.01zm66.072 68.577c1.566,-3.131 -0.782,-4.071 -2.192,-1.252 -3.287,6.732 -13.621,26.616 -20.197,26.303 -2.035,0 -2.818,-2.975 -1.566,-9.394 2.036,-9.551 11.273,-25.991 14.561,-29.278 -2.192,0.469 -4.54,-0.47 -6.576,-0.627 -5.01,-0.313 -7.202,3.445 -10.646,10.021 -4.071,7.672 -8.455,15.343 -13.935,21.92 -7.359,8.767 -15.97,10.02 -14.404,-0.94 0.939,-5.949 5.166,-13.621 6.419,-15.813 5.636,-9.238 13.778,-18.476 20.824,-22.39 5.793,-3.131 11.586,-1.879 13.308,3.914 2.662,0.47 3.914,-2.192 1.722,-4.54 -8.924,-9.707 -26.93,-3.914 -36.324,7.202 -23.642,28.339 -11.743,55.739 6.263,38.516 4.541,-4.384 8.768,-10.647 11.273,-14.717 -4.697,16.439 2.662,20.51 7.828,20.197 9.395,-0.783 18.945,-19.571 23.642,-29.122zm52.451 -0.156c1.566,-3.132 -0.939,-4.228 -2.192,-1.409 -3.288,6.575 -13.308,27.086 -21.45,27.086 -2.035,0 -3.757,-1.409 -2.505,-7.828 2.036,-10.96 18.789,-40.396 18.789,-40.396 -5.324,-1.878 -21.45,7.986 -28.966,14.718 -4.853,4.228 -9.864,10.177 -12.995,14.091 5.636,-11.273 14.248,-26.929 18.945,-29.435 -2.192,0.47 -4.541,-0.469 -6.576,-0.626 -5.01,-0.313 -7.046,2.349 -11.116,9.864 -7.672,14.248 -14.092,29.122 -21.607,43.996 1.566,-1.096 2.975,-0.94 5.323,-1.096 3.288,0.156 4.698,0 5.95,-2.192 8.768,-17.379 16.44,-26.147 21.763,-31.001 12.056,-11.273 14.874,-7.045 11.116,-0.939 -4.383,7.045 -7.358,12.369 -8.611,16.439 -4.697,14.562 2.818,18.319 8.298,18.319 12.056,0 21.137,-19.884 25.834,-29.435l0 -0.156zm36.325 -30.531l-7.516 0c2.349,-4.385 4.541,-8.768 6.733,-13.465 11.586,-25.052 -5.324,-27.713 -16.127,-8.768 -3.914,6.732 -7.828,14.404 -11.429,22.233l-9.395 0c-1.722,0 -2.035,3.444 -0.313,3.444l8.142 0c-5.011,12.212 -10.803,29.279 -12.213,39.925 -2.348,17.223 13.152,19.885 21.607,11.743 5.793,-5.793 8.455,-10.02 15.344,-24.425 1.566,-3.131 -0.783,-3.757 -2.036,-0.939 -4.227,8.454 -9.394,18.318 -16.596,23.642 -5.167,3.757 -12.369,2.348 -10.02,-8.142 0,0 2.192,-11.899 3.601,-15.97 9.237,-8.455 15.5,-16.753 20.823,-25.834l9.081 0c1.566,0 1.879,-3.444 0.314,-3.444zm-3.132 -15.971c-2.192,5.167 -4.854,10.647 -7.828,15.971l-7.829 0c3.914,-8.925 7.359,-17.536 11.117,-22.86 9.707,-13.621 7.515,0.314 4.54,6.889zm-9.864 19.415c-4.54,7.515 -9.863,14.718 -15.813,20.824 2.192,-5.48 5.167,-13.152 8.455,-20.824l7.358 0zm46.658 26.773c1.566,-3.287 -1.566,-2.974 -2.818,-0.156 -3.601,8.298 -12.056,26.773 -25.834,26.773 -10.334,0 -7.672,-15.813 -5.324,-21.45 4.228,0 14.405,-3.288 19.258,-6.889 10.021,-7.672 14.561,-18.319 8.612,-22.859 -6.889,-5.167 -18.789,0.783 -26.774,10.177 -6.889,8.142 -12.212,19.884 -12.055,29.279 0.156,9.863 7.202,15.03 15.03,15.03 17.379,0 24.112,-17.379 29.905,-29.905zm-16.283 -4.384c-5.637,4.698 -13.778,6.89 -16.597,6.89 1.409,-2.819 5.324,-9.708 9.394,-14.718 19.259,-23.329 20.041,-2.975 7.203,7.828zm28.182 -41.96c0.783,-1.566 0.157,-3.445 -1.409,-4.227 -3.131,-1.566 -6.576,0 -9.081,1.878 -2.505,2.036 -18.632,12.996 -19.258,14.248 -0.47,0.626 -0.313,1.566 0.47,2.036 1.096,0.469 28.026,-11.273 29.278,-13.935z"/>
  </g>
 </g>
</svg>
